<svg xmlns="http://www.w3.org/2000/svg" width="128" height="128" viewBox="78.5 94.5 128 128">
    <path d="M137.016 120.915c4.533-.943 9.585-.46 13.473 2.222 1.994 1.344 3.281 3.585 3.649 5.941.577 4.063.888 8.228.147 12.291.75.29 1.564.64 1.759 1.514.358 2.435-.594 4.837-1.589 7.012-.399.967-1.279 1.487-2.281 1.624.072 2.395-.212 5.353-2.56 6.627l.124 3.126c.788.124 1.574.248 2.36.366.162.926.245 1.86.461 2.774 4.685 3.632 11.099 3.552 15.861 7.037 1.338.976 2.691 2.194 3.088 3.873 2.007 8.679 4.606 17.285 5.684 26.151-23.759.059-47.52 0-71.279 0 1.417-7.422 2.895-14.844 4.473-22.233.584-3.156 3.133-5.407 5.674-7.102 3.837-2.645 8.323-4.08 12.34-6.4.999-.558 2.021-1.077 3.052-1.573.115-.865.207-1.727.28-2.591.916-.106 1.832-.221 2.747-.336-.12-.985-.244-1.97-.409-2.95-2.397-1.371-3.05-4.288-3.147-6.843-.603-.15-1.196-.317-1.785-.496-.626-1.817-.648-3.765-1.201-5.605-.456-1.38.198-2.738 1.265-3.612-.52-1.702-1.463-3.312-1.453-5.139-.06-3.511-.115-7.266 1.573-10.456.607-1.251 1.979-1.808 3.3-1.891.087-2.236 2.678-2.775 4.394-3.331z"/><path d="M107.645 125.41c.957-1.274 2.112-2.374 3.345-3.382.005 1.049.115 2.093.346 3.115l.349-1.164c2.228.966 4.343 2.162 6.433 3.395 2.126 1.275 3.856 3.447 4.054 5.983.129 2.287-.008 4.588-.171 6.87.98.654 1.731 1.615 1.446 2.872-.193 1.785.488 4.826-1.998 5.177-.557 3.359-1.996 6.593-4.376 9.059.217 1.699.487 3.387.935 5.044 1.84.782 3.625 1.703 5.392 2.646-3.925 1.631-7.877 3.398-11.158 6.152-1.998 1.723-3.76 3.886-4.451 6.476-.994 4.283-1.826 8.498-2.825 12.778-8.471 0-16.946-.013-25.419 0 .055-4.497-.45-9.019.912-13.379.8-2.635 2.034-5.331 4.334-6.982 2.001-1.273 4.228-2.177 6.506-2.821 3.489-1.04 6.728-2.725 9.985-4.312.46-.263 1.035-.428 1.334-.897.432-1.559.636-3.17.962-4.748-1.882-2.498-3.129-5.439-3.742-8.5-1.992-.206-2.001-2.419-2.08-3.943-.05-1.587-.892-3.676.898-4.615-.197-3.414-1.068-7.206.925-10.28 2.01-2.83 5.531-3.902 8.033-6.208.008.413.022 1.246.031 1.664zm61.123 1.952c2.458-1.657 5.324-2.872 8.319-2.933 3.16.167 6.244 1.473 8.72 3.42 3.267 3.437 3.4 8.388 4.216 12.788.404 3.524.635 7.155 2.047 10.463.63 1.592 1.501 3.084 2.062 4.703-1.148-.893-2.136-1.965-3.13-3.019.354 1.321.824 2.614 1.605 3.745-2.678 1.183-5.538 1.851-8.286 2.844.087.912-.121 1.893.224 2.763.741.522 1.566.938 2.26 1.535.986.888 1.283 2.328 2.338 3.148 1.542.776 3.223 1.272 4.672 2.235 2.227 1.429 4.909 1.711 7.414 2.36 2.18 1.133 3.613 3.656 3.495 6.117.186 4.896.572 10.037.777 14.927-9.001.01-18.001.028-27.002-.01-.92-5.593-2.681-11.273-3.881-16.804-.652-4.747-5.234-7.567-9.329-9.145.847-1.933 2.24-3.533 4.218-4.351.019-.936.061-1.87.098-2.8-2.729-.976-5.577-1.624-8.223-2.821.625-1.122 1.22-2.295 1.339-3.598-.89 1.09-1.827 2.162-3.075 2.854 1.492-2.844 3.182-5.693 3.521-8.951.561-4.547 1.091-9.111 2.117-13.58.599-2.209 1.66-4.436 3.484-5.89z"/>
</svg>