<svg xmlns="http://www.w3.org/2000/svg" width="204" height="35" viewBox="0 0 204 35">
    <g>
        <path
                fill="#F1BA36"
                d="M14.48 31.703C6.91 31.703.752 25.545.752 17.978.753 10.408 6.91 4.25 14.48 4.25S28.205
            10.41 28.205 17.98c0 7.567-6.16 13.725-13.727 13.725z"
        />
        <path
                fill="#F1BA36"
                d="M14.48 5.005c7.152 0 12.973 5.82 12.973 12.973 0 7.152-5.82 12.973-12.974
            12.973S1.505 25.13 1.505 17.98c0-7.153 5.82-12.973 12.973-12.973m0-1.505C6.482 3.502 0 9.98 0 17.98c0 7.995
            6.482 14.478 14.48 14.478 7.996 0 14.478-6.482 14.478-14.48 0-7.997-6.482-14.476-14.48-14.476V3.5z"
        />
        <path
                fill="#221E20"
                d="M8.115 24.72v-2.472c0-.36.363-.6.69-.457 1.522.66 3.19.983 5.006.983 2.49
            0 3.93-.688 3.93-1.9 0-1.08-.95-1.602-2.88-1.602h-2.71c-.276 0-.5-.224-.5-.5v-2.338c0-.276.224-.5.5-.5h2.708c1.57
            0 2.357-.49 2.357-1.44 0-1.047-1.113-1.57-3.34-1.57-1.712 0-3.255.264-4.632.815-.32.13-.67-.11-.67-.458v-2.363c0-.307.19-.58.475-.693
            1.59-.647 3.557-.97 5.844-.97 1.997 0 3.667.424 5.01 1.275 1.34.85 2.03 1.93 2.03 3.208 0 1.67-.68
            2.806-2.032 3.38-.103.044-.1.196.006.237 1.538.586 2.68 1.855 2.68 3.78 0 1.54-.752 2.815-2.258
            3.83-1.474.983-3.478 1.476-5.9 1.476-2.354 0-4.26-.353-5.85-1.034-.28-.117-.463-.386-.463-.687zm114.382-2.115v2.45c0
            .4-.237.765-.603.923-.51.22-1.135.332-1.887.332-1.796 0-2.988-.637-3.628-1.94-.04-.075-.134-.093-.192-.034-1.426
            1.393-3.252 2.105-5.51 2.105-3.537 0-6.023-2.16-6.023-5.468 0-1.734.62-3.077 1.898-3.993 1.276-.917 2.78-1.375 4.55-1.375
            1.834 0 3.406.327 4.716 1.015v-.49c0-2.06-1.44-3.077-4.322-3.077-1.353 0-2.663.276-3.903.833-.49.22-1.04-.146-1.04-.684v-2.017c0-.4.24-.756.608-.918
            1.54-.687 3.342-1.017 5.45-1.017 2.324 0 4.22.557 5.63 1.703 1.44 1.147 2.16 2.718 2.16 4.714V21.2c0 .816.392
            1.244 1.146 1.244.234 0 .45-.025.63-.072.155-.043.315.068.315.232h.002zm-6.68-2.49c0-.357-.195-.688-.513-.848-.836-.43-1.786-.65-2.894-.65-1.965
            0-3.208.785-3.208 2.127 0 1.44 1.21 2.127 2.913 2.127 1.472 0 2.643-.464 3.482-1.4.147-.167.217-.386.217-.608v-.746h.003zm40.893 2.49v2.45c0
            .4-.237.765-.602.923-.51.22-1.135.332-1.887.332-1.795 0-2.984-.637-3.626-1.94-.038-.075-.135-.093-.194-.034-1.424 1.393-3.25 2.105-5.51 2.105-3.54
            0-6.026-2.16-6.026-5.468 0-1.734.623-3.077 1.9-3.993 1.28-.917 2.785-1.375 4.55-1.375 1.834 0 3.405.327 4.716
            1.015v-.49c0-2.06-1.438-3.077-4.32-3.077-1.354 0-2.664.276-3.903.833-.49.22-1.04-.146-1.04-.684v-2.017c0-.4.242-.756.606-.918 1.544-.687 3.344-1.017
            5.452-1.017 2.325 0 4.222.557 5.63 1.703 1.44 1.147 2.16 2.718 2.16 4.714V21.2c0 .816.395 1.244 1.147 1.244.237
            0 .448-.025.63-.072.157-.043.316.068.316.232h.002zm-6.68-2.49c0-.357-.193-.688-.51-.848-.833-.43-1.785-.65-2.894-.65-1.965
            0-3.21.785-3.21 2.127 0 1.44 1.213 2.127 2.92 2.127 1.467 0 2.638-.464 3.476-1.4.15-.167.22-.386.22-.608v-.747zM60.386 11.74c1.473 1.638
            2.193 3.667 2.193 6.12 0 2.423-.718 4.453-2.193 6.123-1.44 1.64-3.275 2.457-5.5 2.457-2.196 0-3.898-.732-5.155-2.166-.075-.086-.217-.04-.217.078v7.45c0
            .417-.338.76-.757.76H45.66c-.42 0-.76-.34-.76-.76V10.436c0-.42.338-.762.76-.762h3.094c.42 0 .76.34.76.762v.894c0 .116.143.163.217.077
            1.206-1.427 2.933-2.155 5.154-2.155 2.228 0 4.06.818 5.5 2.488zm-10.87 4.108v4.03c0 .073.02.145.057.212.77 1.355 2.247
            2.322 4.003 2.322 1.277 0 2.356-.424 3.176-1.307.82-.887 1.246-1.965 1.246-3.245 0-1.31-.426-2.39-1.245-3.274-.817-.885-1.897-1.312-3.175-1.312-1.757
            0-3.234 1-4.004 2.354-.037.068-.055.142-.055.217v.003zM183.36 11.74c1.476 1.638 2.196 3.667 2.196 6.12 0 2.423-.72 4.453-2.195 6.123-1.437 1.64-3.274
            2.457-5.498 2.457-2.196 0-3.896-.732-5.154-2.166-.075-.086-.217-.04-.217.078v7.45c0 .417-.338.76-.762.76h-3.094c-.42
            0-.763-.34-.763-.76V10.436c0-.42.342-.762.764-.762h3.096c.42 0 .763.34.763.762v.894c0 .116.138.163.215.077 1.202-1.427 2.93-2.155 5.154-2.155
            2.225 0 4.06.818 5.5 2.488zm-10.868 4.108v4.03c0 .073.02.145.056.212.77 1.355 2.246 2.322 4.004 2.322 1.277 0 2.358-.424
            3.176-1.307.818-.887 1.244-1.965 1.244-3.245 0-1.31-.426-2.39-1.244-3.274-.817-.885-1.898-1.312-3.176-1.312-1.758 0-3.233
            1-4.004 2.354-.036.068-.056.142-.056.217v.003zM65.66 25.51V10.182c0-.28.225-.506.502-.506h14.74c.28 0 .504.226.504.507V25.51c0
            .28-.223.502-.503.502h-3.61c-.277 0-.502-.223-.502-.502V14.047c0-.28-.225-.503-.503-.503h-5.51c-.277 0-.503.223-.503.5V25.51c0
            .28-.223.502-.502.502H66.16c-.277 0-.5-.223-.5-.502zm26.98-11.967c-.275 0-.5.216-.507.493l-.053 1.795c-.097 2.262-.197 3.765-.752
            5.732-.785 2.75-2.357 4.484-5.6 4.584-.57 0-1.038-.055-1.39-.158-.21-.06-.344-.264-.344-.482v-2.8c0-.3.254-.534.55-.51.13.015.26.02.396.02
            1.08 0 1.77-.62 2.13-2.097.393-1.536.488-2.913.524-5.63l.088-4.314c.005-.275.232-.498.51-.498h13.1c.283 0 .51.228.51.51v15.316c0
            .283-.227.508-.51.508H97.7c-.284 0-.512-.225-.512-.508V14.05c0-.28-.228-.506-.51-.506H92.64zm35.388 11.955v-11.44c0-.287-.23-.52-.516-.52h-4.073c-.285
            0-.52-.228-.52-.515V10.19c0-.286.234-.516.52-.516H137.3c.285 0 .517.23.517.517v2.832c0 .287-.232.517-.518.517h-4.14c-.284
            0-.518.23-.518.516v11.442c0 .285-.23.514-.515.514h-3.588c-.28 0-.513-.23-.514-.514zm31.278-2.006c0-1.572 1.244-2.816 2.846-2.816 1.57
            0 2.848 1.246 2.848 2.818 0 1.604-1.276 2.88-2.85 2.88-1.602 0-2.846-1.276-2.846-2.88l.002-.002zM186.9 31.69v-2.823c0-.346.344-.6.67-.477.57.223 1.187.34
            1.817.34 1.618 0 2.62-.953 3.548-3.068.056-.13.056-.277-.002-.408l-6.635-14.875c-.147-.333.094-.707.456-.707h3.69c.31
            0 .592.188.706.478l3.89 9.666c.085.217.39.21.47-.006l3.677-9.648c.112-.293.394-.49.708-.49h3.604c.356
            0 .6.366.46.695l-7.275 17.346c-1.438 3.37-3.6 5.04-6.512 5.04-1.13 0-2.1-.16-2.863-.468-.247-.092-.41-.328-.41-.596zM41.698
            22.372c-.182.047-.394.072-.63.072-.753 0-1.147-.43-1.147-1.246v-5.534c0-1.997-.72-3.568-2.16-4.713-1.407-1.148-3.307-1.703-5.628-1.703-1.996
            0-3.923.363-5.334.98l-.004.015c.613.993 1.11 2.062 1.47 3.194.006 0 .01.003.015.003.848-.242 1.847-.395 2.738-.395 2.883 0 4.322 1.017 4.322
            3.077v.493c-1.308-.688-2.88-1.017-4.715-1.017-1.767 0-3.273.46-4.55 1.377-1.275.918-1.898 2.258-1.898 3.995 0 3.307 2.488 5.47 6.023 5.47
            2.262 0 4.09-.714 5.512-2.108.06-.057.156-.04.193.035.64 1.304 1.828 1.94 3.626 1.94.75 0 1.376-.113
            1.886-.334.368-.16.604-.523.604-.922v-2.447c0-.166-.16-.275-.32-.236l-.002.003zm-6.36-1.516c0 .22-.07.443-.22.607-.84.938-2.008 1.402-3.478 1.402-1.703
            0-2.914-.686-2.914-2.127 0-1.343 1.246-2.126 3.21-2.126 1.107 0 2.06.22 2.89.648.317.164.513.492.513.848v.747z"
        />
    </g>
</svg>
